# xmcd
#
# Track frame offsets:
#	150
#	18795
#	32550
#	52895
#	68015
#	79835
#	94625
#	112385
#	133985
#	149265
#	166730
#
# Disc length: 2371 seconds
#
# Revision: 1
# Processed by: cddbd v1.5.2PL0 Copyright (c) Steve Scherf et al.
# Submitted via: audiograbber 1.83.01
#
DISCID=8c09410b
DTITLE=Elvis Lives - Sworn To Secrecy
DYEAR=2001
DGENRE=Rock and Roll
TTITLE0=2001- C.C. Rider
TTITLE1=Kentucky Rain
TTITLE2=Bridge Over Troubled Water
TTITLE3=Patch It Up
TTITLE4=Fever
TTITLE5=You Gave Me A Mountain
TTITLE6=My Way
TTITLE7=Suspicious Minds
TTITLE8=I've Lost You
TTITLE9=American Trilogy
TTITLE10=Can't Help Falling In Love
EXTD=Local Pittsburgh act
EXTT0=
EXTT1=
EXTT2=
EXTT3=
EXTT4=
EXTT5=
EXTT6=
EXTT7=
EXTT8=
EXTT9=
EXTT10=
PLAYORDER=
